<mxfile><diagram id="BZZcQW6atTqjhy44g_oU" name="第 1 页"><mxGraphModel dx="3448" dy="1733" grid="1" gridSize="10" guides="1" tooltips="1" connect="1" arrows="1" fold="1" page="1" pageScale="1" pageWidth="1200" pageHeight="1600" math="0" shadow="0"><root><mxCell id="0"/><mxCell id="1" parent="0"/><mxCell id="131" value="用户积分" style="rounded=0;whiteSpace=wrap;html=1;dashed=1;sketch=1;hachureGap=4;jiggle=2;curveFitting=1;fontFamily=Verdana;fontSize=20;align=left;labelPosition=center;verticalLabelPosition=middle;verticalAlign=top;" vertex="1" parent="1"><mxGeometry x="1540" y="830" width="570" height="315" as="geometry"/></mxCell><mxCell id="129" value="" style="rounded=0;whiteSpace=wrap;html=1;dashed=1;sketch=1;hachureGap=4;jiggle=2;curveFitting=1;fontFamily=Verdana;fontSize=20;" vertex="1" parent="1"><mxGeometry x="1540" y="660" width="220" height="120" as="geometry"/></mxCell><mxCell id="128" value="" style="rounded=0;whiteSpace=wrap;html=1;dashed=1;sketch=1;hachureGap=4;jiggle=2;curveFitting=1;fontFamily=Verdana;fontSize=20;" vertex="1" parent="1"><mxGeometry x="440" y="150" width="990" height="1140" as="geometry"/></mxCell><mxCell id="127" value="" style="rounded=0;whiteSpace=wrap;html=1;dashed=1;sketch=1;hachureGap=4;jiggle=2;curveFitting=1;fontFamily=Verdana;fontSize=20;" vertex="1" parent="1"><mxGeometry x="1540" y="260" width="600" height="330" as="geometry"/></mxCell><mxCell id="81" style="edgeStyle=orthogonalEdgeStyle;curved=1;sketch=1;hachureGap=4;jiggle=2;curveFitting=1;html=1;entryX=1;entryY=0.5;entryDx=0;entryDy=0;dashed=1;fontFamily=Verdana;fontSize=16;" edge="1" parent="1" source="57" target="78"><mxGeometry relative="1" as="geometry"><Array as="points"><mxPoint x="1200" y="240"/></Array></mxGeometry></mxCell><mxCell id="108" style="edgeStyle=orthogonalEdgeStyle;curved=1;sketch=1;hachureGap=4;jiggle=2;curveFitting=1;html=1;entryX=1;entryY=0.5;entryDx=0;entryDy=0;fontFamily=Verdana;fontSize=16;" edge="1" parent="1" source="57" target="75"><mxGeometry relative="1" as="geometry"/></mxCell><mxCell id="109" style="edgeStyle=orthogonalEdgeStyle;curved=1;sketch=1;hachureGap=4;jiggle=2;curveFitting=1;html=1;entryX=1;entryY=0.5;entryDx=0;entryDy=0;fontFamily=Verdana;fontSize=16;" edge="1" parent="1" source="57" target="61"><mxGeometry relative="1" as="geometry"/></mxCell><mxCell id="110" style="edgeStyle=orthogonalEdgeStyle;curved=1;sketch=1;hachureGap=4;jiggle=2;curveFitting=1;html=1;entryX=1;entryY=0.5;entryDx=0;entryDy=0;fontFamily=Verdana;fontSize=16;" edge="1" parent="1" source="57" target="76"><mxGeometry relative="1" as="geometry"/></mxCell><mxCell id="111" style="edgeStyle=orthogonalEdgeStyle;curved=1;sketch=1;hachureGap=4;jiggle=2;curveFitting=1;html=1;entryX=1;entryY=0.5;entryDx=0;entryDy=0;fontFamily=Verdana;fontSize=16;" edge="1" parent="1" source="57" target="77"><mxGeometry relative="1" as="geometry"/></mxCell><mxCell id="126" style="edgeStyle=orthogonalEdgeStyle;curved=1;sketch=1;hachureGap=4;jiggle=2;curveFitting=1;html=1;entryX=0;entryY=0.5;entryDx=0;entryDy=0;fontFamily=Verdana;fontSize=16;exitX=0.5;exitY=1;exitDx=0;exitDy=0;" edge="1" parent="1" source="57" target="82"><mxGeometry relative="1" as="geometry"><mxPoint x="1330" y="640" as="sourcePoint"/><Array as="points"><mxPoint x="1330" y="640"/><mxPoint x="1410" y="640"/><mxPoint x="1410" y="680"/><mxPoint x="1535" y="680"/><mxPoint x="1535" y="720"/></Array></mxGeometry></mxCell><mxCell id="57" value="&lt;font face=&quot;Verdana&quot;&gt;活动&lt;br&gt;activity&lt;/font&gt;" style="rounded=0;whiteSpace=wrap;html=1;sketch=1;hachureGap=4;jiggle=2;curveFitting=1;fontFamily=Architects Daughter;fontSource=https%3A%2F%2Ffonts.googleapis.com%2Fcss%3Ffamily%3DArchitects%2BDaughter;fontSize=20;fillColor=#f8cecc;strokeColor=#b85450;" vertex="1" parent="1"><mxGeometry x="1270" y="565" width="120" height="60" as="geometry"/></mxCell><mxCell id="120" style="edgeStyle=orthogonalEdgeStyle;curved=1;sketch=1;hachureGap=4;jiggle=2;curveFitting=1;html=1;entryX=1;entryY=0.5;entryDx=0;entryDy=0;fontFamily=Verdana;fontSize=16;" edge="1" parent="1" source="58" target="57"><mxGeometry relative="1" as="geometry"/></mxCell><mxCell id="121" style="edgeStyle=orthogonalEdgeStyle;curved=1;sketch=1;hachureGap=4;jiggle=2;curveFitting=1;html=1;entryX=0;entryY=0.5;entryDx=0;entryDy=0;fontFamily=Verdana;fontSize=16;" edge="1" parent="1" source="58" target="70"><mxGeometry relative="1" as="geometry"/></mxCell><mxCell id="122" style="edgeStyle=orthogonalEdgeStyle;curved=1;sketch=1;hachureGap=4;jiggle=2;curveFitting=1;html=1;entryX=0;entryY=0.5;entryDx=0;entryDy=0;fontFamily=Verdana;fontSize=16;" edge="1" parent="1" source="58" target="71"><mxGeometry relative="1" as="geometry"/></mxCell><mxCell id="123" style="edgeStyle=orthogonalEdgeStyle;curved=1;sketch=1;hachureGap=4;jiggle=2;curveFitting=1;html=1;entryX=0;entryY=0.5;entryDx=0;entryDy=0;fontFamily=Verdana;fontSize=16;" edge="1" parent="1" source="58" target="73"><mxGeometry relative="1" as="geometry"/></mxCell><mxCell id="58" value="&lt;font face=&quot;Verdana&quot;&gt;活动&lt;/font&gt;&lt;span style=&quot;font-family: Verdana;&quot;&gt;用户&lt;/span&gt;&lt;font face=&quot;Verdana&quot;&gt;&lt;br&gt;activity-user&lt;/font&gt;" style="rounded=0;whiteSpace=wrap;html=1;sketch=1;hachureGap=4;jiggle=2;curveFitting=1;fontFamily=Architects Daughter;fontSource=https%3A%2F%2Ffonts.googleapis.com%2Fcss%3Ffamily%3DArchitects%2BDaughter;fontSize=20;fillColor=#ffe6cc;strokeColor=#d79b00;" vertex="1" parent="1"><mxGeometry x="1560" y="395" width="180" height="60" as="geometry"/></mxCell><mxCell id="59" value="&lt;font face=&quot;Verdana&quot;&gt;奖励&lt;br&gt;&lt;/font&gt;gift" style="rounded=0;whiteSpace=wrap;html=1;sketch=1;hachureGap=4;jiggle=2;curveFitting=1;fontFamily=Architects Daughter;fontSource=https%3A%2F%2Ffonts.googleapis.com%2Fcss%3Ffamily%3DArchitects%2BDaughter;fontSize=20;fillColor=#dae8fc;strokeColor=#6c8ebf;" vertex="1" parent="1"><mxGeometry x="1540" y="1215" width="120" height="60" as="geometry"/></mxCell><mxCell id="60" value="&lt;font face=&quot;Verdana&quot;&gt;勋章&lt;br&gt;badge&lt;br&gt;&lt;/font&gt;" style="rounded=0;whiteSpace=wrap;html=1;sketch=1;hachureGap=4;jiggle=2;curveFitting=1;fontFamily=Architects Daughter;fontSource=https%3A%2F%2Ffonts.googleapis.com%2Fcss%3Ffamily%3DArchitects%2BDaughter;fontSize=20;fillColor=#dae8fc;strokeColor=#6c8ebf;" vertex="1" parent="1"><mxGeometry x="1750" y="1215" width="120" height="60" as="geometry"/></mxCell><mxCell id="95" style="edgeStyle=orthogonalEdgeStyle;curved=1;sketch=1;hachureGap=4;jiggle=2;curveFitting=1;html=1;dashed=1;fontFamily=Verdana;fontSize=16;" edge="1" parent="1" source="61" target="94"><mxGeometry relative="1" as="geometry"/></mxCell><mxCell id="97" style="edgeStyle=orthogonalEdgeStyle;curved=1;sketch=1;hachureGap=4;jiggle=2;curveFitting=1;html=1;entryX=1;entryY=0.5;entryDx=0;entryDy=0;fontFamily=Verdana;fontSize=16;" edge="1" parent="1" source="61" target="96"><mxGeometry relative="1" as="geometry"/></mxCell><mxCell id="61" value="&lt;font face=&quot;Verdana&quot;&gt;活动任务配置&lt;br&gt;activity-task&lt;br&gt;&lt;/font&gt;" style="rounded=0;whiteSpace=wrap;html=1;sketch=1;hachureGap=4;jiggle=2;curveFitting=1;fontFamily=Architects Daughter;fontSource=https%3A%2F%2Ffonts.googleapis.com%2Fcss%3Ffamily%3DArchitects%2BDaughter;fontSize=20;" vertex="1" parent="1"><mxGeometry x="900" y="390" width="170" height="60" as="geometry"/></mxCell><mxCell id="70" value="&lt;font face=&quot;Verdana&quot;&gt;用户任务&lt;br&gt;acitivty-user-task&lt;br&gt;&lt;/font&gt;" style="rounded=0;whiteSpace=wrap;html=1;sketch=1;hachureGap=4;jiggle=2;curveFitting=1;fontFamily=Architects Daughter;fontSource=https%3A%2F%2Ffonts.googleapis.com%2Fcss%3Ffamily%3DArchitects%2BDaughter;fontSize=20;" vertex="1" parent="1"><mxGeometry x="1800" y="300" width="225" height="60" as="geometry"/></mxCell><mxCell id="71" value="&lt;font face=&quot;Verdana&quot;&gt;用户状态&lt;br&gt;activity-user-info&lt;br&gt;&lt;/font&gt;" style="rounded=0;whiteSpace=wrap;html=1;sketch=1;hachureGap=4;jiggle=2;curveFitting=1;fontFamily=Architects Daughter;fontSource=https%3A%2F%2Ffonts.googleapis.com%2Fcss%3Ffamily%3DArchitects%2BDaughter;fontSize=20;" vertex="1" parent="1"><mxGeometry x="1800" y="400" width="230" height="50" as="geometry"/></mxCell><mxCell id="72" value="&lt;font face=&quot;Verdana&quot;&gt;维度用户积分&lt;br&gt;dimension-user-points&lt;br&gt;&lt;/font&gt;" style="rounded=0;whiteSpace=wrap;html=1;sketch=1;hachureGap=4;jiggle=2;curveFitting=1;fontFamily=Architects Daughter;fontSource=https%3A%2F%2Ffonts.googleapis.com%2Fcss%3Ffamily%3DArchitects%2BDaughter;fontSize=20;" vertex="1" parent="1"><mxGeometry x="1780" y="887.5" width="240" height="70" as="geometry"/></mxCell><mxCell id="73" value="&lt;font face=&quot;Verdana&quot;&gt;用户奖励&lt;br&gt;activity-user-reward&lt;br&gt;&lt;/font&gt;" style="rounded=0;whiteSpace=wrap;html=1;sketch=1;hachureGap=4;jiggle=2;curveFitting=1;fontFamily=Architects Daughter;fontSource=https%3A%2F%2Ffonts.googleapis.com%2Fcss%3Ffamily%3DArchitects%2BDaughter;fontSize=20;" vertex="1" parent="1"><mxGeometry x="1800" y="500" width="230" height="50" as="geometry"/></mxCell><mxCell id="75" value="&lt;font face=&quot;Verdana&quot;&gt;活动限制配置&lt;br&gt;activity-qualification&lt;br&gt;&lt;/font&gt;" style="rounded=0;whiteSpace=wrap;html=1;sketch=1;hachureGap=4;jiggle=2;curveFitting=1;fontFamily=Architects Daughter;fontSource=https%3A%2F%2Ffonts.googleapis.com%2Fcss%3Ffamily%3DArchitects%2BDaughter;fontSize=20;" vertex="1" parent="1"><mxGeometry x="820" y="300" width="250" height="60" as="geometry"/></mxCell><mxCell id="98" style="edgeStyle=orthogonalEdgeStyle;curved=1;sketch=1;hachureGap=4;jiggle=2;curveFitting=1;html=1;entryX=1.003;entryY=0.671;entryDx=0;entryDy=0;entryPerimeter=0;fontFamily=Verdana;fontSize=16;" edge="1" parent="1" source="76" target="96"><mxGeometry relative="1" as="geometry"/></mxCell><mxCell id="102" style="edgeStyle=orthogonalEdgeStyle;curved=1;sketch=1;hachureGap=4;jiggle=2;curveFitting=1;html=1;entryX=1;entryY=0.75;entryDx=0;entryDy=0;fontFamily=Verdana;fontSize=16;" edge="1" parent="1" source="76" target="100"><mxGeometry relative="1" as="geometry"/></mxCell><mxCell id="103" style="edgeStyle=orthogonalEdgeStyle;curved=1;sketch=1;hachureGap=4;jiggle=2;curveFitting=1;html=1;fontFamily=Verdana;fontSize=16;" edge="1" parent="1" source="76" target="99"><mxGeometry relative="1" as="geometry"/></mxCell><mxCell id="104" style="edgeStyle=orthogonalEdgeStyle;curved=1;sketch=1;hachureGap=4;jiggle=2;curveFitting=1;html=1;entryX=1;entryY=0.75;entryDx=0;entryDy=0;fontFamily=Verdana;fontSize=16;" edge="1" parent="1" source="76" target="101"><mxGeometry relative="1" as="geometry"/></mxCell><mxCell id="76" value="&lt;font face=&quot;Verdana&quot;&gt;活动奖励配置&lt;br&gt;activity-reward&lt;br&gt;&lt;/font&gt;" style="rounded=0;whiteSpace=wrap;html=1;sketch=1;hachureGap=4;jiggle=2;curveFitting=1;fontFamily=Architects Daughter;fontSource=https%3A%2F%2Ffonts.googleapis.com%2Fcss%3Ffamily%3DArchitects%2BDaughter;fontSize=20;" vertex="1" parent="1"><mxGeometry x="900" y="560" width="170" height="60" as="geometry"/></mxCell><mxCell id="92" style="edgeStyle=orthogonalEdgeStyle;curved=1;sketch=1;hachureGap=4;jiggle=2;curveFitting=1;html=1;entryX=1;entryY=0.5;entryDx=0;entryDy=0;dashed=1;fontFamily=Verdana;fontSize=16;" edge="1" parent="1" source="77" target="90"><mxGeometry relative="1" as="geometry"/></mxCell><mxCell id="112" style="edgeStyle=orthogonalEdgeStyle;curved=1;sketch=1;hachureGap=4;jiggle=2;curveFitting=1;html=1;entryX=1;entryY=0.5;entryDx=0;entryDy=0;fontFamily=Verdana;fontSize=16;" edge="1" parent="1" source="77" target="83"><mxGeometry relative="1" as="geometry"/></mxCell><mxCell id="113" style="edgeStyle=orthogonalEdgeStyle;curved=1;sketch=1;hachureGap=4;jiggle=2;curveFitting=1;html=1;entryX=1;entryY=0.5;entryDx=0;entryDy=0;fontFamily=Verdana;fontSize=16;" edge="1" parent="1" source="77" target="84"><mxGeometry relative="1" as="geometry"/></mxCell><mxCell id="77" value="&lt;font face=&quot;Verdana&quot;&gt;活动ui配置&lt;br&gt;activity-ui&lt;br&gt;&lt;/font&gt;" style="rounded=0;whiteSpace=wrap;html=1;sketch=1;hachureGap=4;jiggle=2;curveFitting=1;fontFamily=Architects Daughter;fontSource=https%3A%2F%2Ffonts.googleapis.com%2Fcss%3Ffamily%3DArchitects%2BDaughter;fontSize=20;" vertex="1" parent="1"><mxGeometry x="1060" y="1060" width="170" height="60" as="geometry"/></mxCell><mxCell id="78" value="&lt;font face=&quot;Verdana&quot;&gt;活动基本配置&lt;br&gt;activity&lt;br&gt;&lt;/font&gt;" style="rounded=0;whiteSpace=wrap;html=1;sketch=1;hachureGap=4;jiggle=2;curveFitting=1;fontFamily=Architects Daughter;fontSource=https%3A%2F%2Ffonts.googleapis.com%2Fcss%3Ffamily%3DArchitects%2BDaughter;fontSize=20;dashed=1;" vertex="1" parent="1"><mxGeometry x="855" y="210" width="195" height="60" as="geometry"/></mxCell><mxCell id="82" value="&lt;font face=&quot;Verdana&quot;&gt;活动统计&lt;br&gt;activity-stat&lt;br&gt;&lt;/font&gt;" style="rounded=0;whiteSpace=wrap;html=1;sketch=1;hachureGap=4;jiggle=2;curveFitting=1;fontFamily=Architects Daughter;fontSource=https%3A%2F%2Ffonts.googleapis.com%2Fcss%3Ffamily%3DArchitects%2BDaughter;fontSize=20;fillColor=#fff2cc;strokeColor=#d6b656;" vertex="1" parent="1"><mxGeometry x="1555" y="690" width="170" height="60" as="geometry"/></mxCell><mxCell id="114" style="edgeStyle=orthogonalEdgeStyle;curved=1;sketch=1;hachureGap=4;jiggle=2;curveFitting=1;html=1;entryX=1;entryY=0.5;entryDx=0;entryDy=0;fontFamily=Verdana;fontSize=16;" edge="1" parent="1" source="83" target="85"><mxGeometry relative="1" as="geometry"/></mxCell><mxCell id="83" value="&lt;font face=&quot;Verdana&quot;&gt;入口&lt;br&gt;loaction&lt;br&gt;&lt;/font&gt;" style="rounded=0;whiteSpace=wrap;html=1;sketch=1;hachureGap=4;jiggle=2;curveFitting=1;fontFamily=Architects Daughter;fontSource=https%3A%2F%2Ffonts.googleapis.com%2Fcss%3Ffamily%3DArchitects%2BDaughter;fontSize=20;" vertex="1" parent="1"><mxGeometry x="800" y="830" width="170" height="60" as="geometry"/></mxCell><mxCell id="115" style="edgeStyle=orthogonalEdgeStyle;curved=1;sketch=1;hachureGap=4;jiggle=2;curveFitting=1;html=1;fontFamily=Verdana;fontSize=16;" edge="1" parent="1" source="84" target="86"><mxGeometry relative="1" as="geometry"/></mxCell><mxCell id="116" style="edgeStyle=orthogonalEdgeStyle;curved=1;sketch=1;hachureGap=4;jiggle=2;curveFitting=1;html=1;entryX=1;entryY=0.5;entryDx=0;entryDy=0;fontFamily=Verdana;fontSize=16;" edge="1" parent="1" source="84" target="89"><mxGeometry relative="1" as="geometry"/></mxCell><mxCell id="117" style="edgeStyle=orthogonalEdgeStyle;curved=1;sketch=1;hachureGap=4;jiggle=2;curveFitting=1;html=1;entryX=1;entryY=0.5;entryDx=0;entryDy=0;fontFamily=Verdana;fontSize=16;" edge="1" parent="1" source="84" target="93"><mxGeometry relative="1" as="geometry"/></mxCell><mxCell id="84" value="&lt;font face=&quot;Verdana&quot;&gt;页面&lt;br&gt;page&lt;br&gt;&lt;/font&gt;" style="rounded=0;whiteSpace=wrap;html=1;sketch=1;hachureGap=4;jiggle=2;curveFitting=1;fontFamily=Architects Daughter;fontSource=https%3A%2F%2Ffonts.googleapis.com%2Fcss%3Ffamily%3DArchitects%2BDaughter;fontSize=20;" vertex="1" parent="1"><mxGeometry x="810" y="1060" width="170" height="60" as="geometry"/></mxCell><mxCell id="85" value="&lt;font face=&quot;Verdana&quot;&gt;横幅&lt;br&gt;Banner&lt;br&gt;&lt;/font&gt;" style="rounded=0;whiteSpace=wrap;html=1;sketch=1;hachureGap=4;jiggle=2;curveFitting=1;fontFamily=Architects Daughter;fontSource=https%3A%2F%2Ffonts.googleapis.com%2Fcss%3Ffamily%3DArchitects%2BDaughter;fontSize=20;" vertex="1" parent="1"><mxGeometry x="530" y="830" width="170" height="60" as="geometry"/></mxCell><mxCell id="90" value="&lt;font face=&quot;Verdana&quot;&gt;模板&lt;br&gt;template&lt;br&gt;&lt;/font&gt;" style="rounded=0;whiteSpace=wrap;html=1;sketch=1;hachureGap=4;jiggle=2;curveFitting=1;fontFamily=Architects Daughter;fontSource=https%3A%2F%2Ffonts.googleapis.com%2Fcss%3Ffamily%3DArchitects%2BDaughter;fontSize=20;dashed=1;" vertex="1" parent="1"><mxGeometry x="810" y="1190" width="170" height="60" as="geometry"/></mxCell><mxCell id="94" value="&lt;font face=&quot;Verdana&quot;&gt;活动任务类型&lt;br&gt;activity-task-type&lt;br&gt;&lt;/font&gt;" style="rounded=0;whiteSpace=wrap;html=1;sketch=1;hachureGap=4;jiggle=2;curveFitting=1;fontFamily=Architects Daughter;fontSource=https%3A%2F%2Ffonts.googleapis.com%2Fcss%3Ffamily%3DArchitects%2BDaughter;fontSize=20;dashed=1;" vertex="1" parent="1"><mxGeometry x="570" y="350" width="220" height="60" as="geometry"/></mxCell><mxCell id="96" value="&lt;font face=&quot;Verdana&quot;&gt;活动任务配置(分类型）&lt;br&gt;activity-task-config&lt;br&gt;&lt;/font&gt;" style="rounded=0;whiteSpace=wrap;html=1;sketch=1;hachureGap=4;jiggle=2;curveFitting=1;fontFamily=Architects Daughter;fontSource=https%3A%2F%2Ffonts.googleapis.com%2Fcss%3Ffamily%3DArchitects%2BDaughter;fontSize=20;" vertex="1" parent="1"><mxGeometry x="470" y="430" width="320" height="70" as="geometry"/></mxCell><mxCell id="99" value="&lt;font face=&quot;Verdana&quot;&gt;积分奖励配置&lt;br&gt;points-config&lt;br&gt;&lt;/font&gt;" style="rounded=0;whiteSpace=wrap;html=1;sketch=1;hachureGap=4;jiggle=2;curveFitting=1;fontFamily=Architects Daughter;fontSource=https%3A%2F%2Ffonts.googleapis.com%2Fcss%3Ffamily%3DArchitects%2BDaughter;fontSize=20;" vertex="1" parent="1"><mxGeometry x="580" y="530" width="170" height="60" as="geometry"/></mxCell><mxCell id="100" value="&lt;font face=&quot;Verdana&quot;&gt;奖品奖励配置&lt;br&gt;gift-config&lt;br&gt;&lt;/font&gt;" style="rounded=0;whiteSpace=wrap;html=1;sketch=1;hachureGap=4;jiggle=2;curveFitting=1;fontFamily=Architects Daughter;fontSource=https%3A%2F%2Ffonts.googleapis.com%2Fcss%3Ffamily%3DArchitects%2BDaughter;fontSize=20;" vertex="1" parent="1"><mxGeometry x="580" y="610" width="170" height="60" as="geometry"/></mxCell><mxCell id="101" value="&lt;font face=&quot;Verdana&quot;&gt;勋章奖励配置&lt;br&gt;badge-config&lt;br&gt;&lt;/font&gt;" style="rounded=0;whiteSpace=wrap;html=1;sketch=1;hachureGap=4;jiggle=2;curveFitting=1;fontFamily=Architects Daughter;fontSource=https%3A%2F%2Ffonts.googleapis.com%2Fcss%3Ffamily%3DArchitects%2BDaughter;fontSize=20;" vertex="1" parent="1"><mxGeometry x="580" y="690" width="170" height="60" as="geometry"/></mxCell><mxCell id="133" style="edgeStyle=orthogonalEdgeStyle;curved=1;sketch=1;hachureGap=4;jiggle=2;curveFitting=1;html=1;entryX=0;entryY=0.5;entryDx=0;entryDy=0;fontFamily=Verdana;fontSize=16;" edge="1" parent="1" source="105" target="72"><mxGeometry relative="1" as="geometry"/></mxCell><mxCell id="134" style="edgeStyle=orthogonalEdgeStyle;curved=1;sketch=1;hachureGap=4;jiggle=2;curveFitting=1;html=1;fontFamily=Verdana;fontSize=16;" edge="1" parent="1" source="105" target="106"><mxGeometry relative="1" as="geometry"/></mxCell><mxCell id="105" value="&lt;font face=&quot;Verdana&quot;&gt;用户积分&lt;br&gt;user-points&lt;br&gt;&lt;/font&gt;" style="rounded=0;whiteSpace=wrap;html=1;sketch=1;hachureGap=4;jiggle=2;curveFitting=1;fontFamily=Architects Daughter;fontSource=https%3A%2F%2Ffonts.googleapis.com%2Fcss%3Ffamily%3DArchitects%2BDaughter;fontSize=20;fillColor=#dae8fc;strokeColor=#6c8ebf;" vertex="1" parent="1"><mxGeometry x="1565" y="962.5" width="120" height="60" as="geometry"/></mxCell><mxCell id="106" value="&lt;font face=&quot;Verdana&quot;&gt;用户积分历史&lt;br&gt;user-points-history&lt;br&gt;&lt;/font&gt;" style="rounded=0;whiteSpace=wrap;html=1;sketch=1;hachureGap=4;jiggle=2;curveFitting=1;fontFamily=Architects Daughter;fontSource=https%3A%2F%2Ffonts.googleapis.com%2Fcss%3Ffamily%3DArchitects%2BDaughter;fontSize=20;" vertex="1" parent="1"><mxGeometry x="1780" y="1017.5" width="240" height="60" as="geometry"/></mxCell><mxCell id="118" value="" style="group" vertex="1" connectable="0" parent="1"><mxGeometry x="540" y="1005" width="170" height="210" as="geometry"/></mxCell><mxCell id="86" value="&lt;font face=&quot;Verdana&quot;&gt;详情页&lt;br&gt;detail&lt;br&gt;&lt;/font&gt;" style="rounded=0;whiteSpace=wrap;html=1;sketch=1;hachureGap=4;jiggle=2;curveFitting=1;fontFamily=Architects Daughter;fontSource=https%3A%2F%2Ffonts.googleapis.com%2Fcss%3Ffamily%3DArchitects%2BDaughter;fontSize=20;" vertex="1" parent="118"><mxGeometry width="170" height="60" as="geometry"/></mxCell><mxCell id="89" value="&lt;font face=&quot;Verdana&quot;&gt;进度页&lt;br&gt;in-progress&lt;br&gt;&lt;/font&gt;" style="rounded=0;whiteSpace=wrap;html=1;sketch=1;hachureGap=4;jiggle=2;curveFitting=1;fontFamily=Architects Daughter;fontSource=https%3A%2F%2Ffonts.googleapis.com%2Fcss%3Ffamily%3DArchitects%2BDaughter;fontSize=20;" vertex="1" parent="118"><mxGeometry y="75" width="170" height="60" as="geometry"/></mxCell><mxCell id="93" value="&lt;font face=&quot;Verdana&quot;&gt;结算页&lt;br&gt;finish&lt;br&gt;&lt;/font&gt;" style="rounded=0;whiteSpace=wrap;html=1;sketch=1;hachureGap=4;jiggle=2;curveFitting=1;fontFamily=Architects Daughter;fontSource=https%3A%2F%2Ffonts.googleapis.com%2Fcss%3Ffamily%3DArchitects%2BDaughter;fontSize=20;" vertex="1" parent="118"><mxGeometry y="150" width="170" height="60" as="geometry"/></mxCell></root></mxGraphModel></diagram></mxfile>